<?xml version="1.0" encoding="utf-8"?>
<!-- Generator: Adobe Illustrator 23.0.1, SVG Export Plug-In . SVG Version: 6.00 Build 0)  -->
<svg version="1.1" id="Layer_2" xmlns="http://www.w3.org/2000/svg" xmlns:xlink="http://www.w3.org/1999/xlink" x="0px" y="0px"
	 viewBox="0 0 250 150" style="enable-background:new 0 0 250 150;" xml:space="preserve">
<style type="text/css">
	.st0{fill:#FFFFFF;stroke:#000000;stroke-miterlimit:10;}
	.st1{fill:none;stroke:#000000;stroke-miterlimit:10;}
</style>
<polyline class="st0" points="99.9,99.7 86.3,96 81.1,108.3 74.4,123.6 130.5,142.9 139.8,113 124.6,107 "/>
<path class="st0" d="M106.5,104.5c-2.1,2.5-6.7,2.1-6.7,2.1c0.1-1.7,0.1-4.2,0.1-7.1c0-0.5,0-3.3-0.1-5.5C99.4,85.4,99.4,81,96.9,79
	c-1.9-1.5-4.6,0.1-8.7-1.5c0,0-6.6-5.1-6.6-5.1s-5.5,0.4-8.9-1.4c-3.2-1.7-5.3-5.4-5.3-5.4S61,66.1,56.5,64
	c-3.5-1.6-6.2-7.7-6.2-7.7s-5.1,0.4-8.3-2.2c-2.4-2-4.7-6.8-4.7-6.8s-6.3-1.1-9-4c-2-2.2-2.9-6.4-3.9-8.3c0,0-2.3-3.3-7.3-10.1
	c-4.5-6.2-2.4-17.4-2.4-17.4s10.1,8.4,26.4,16c16.5,7.7,25.3,2.4,43.6,11.6c6.7,3.3,13.8,9.8,14.2,9.3c0.4-0.5-7.4-10.3-7.4-10.3
	s5.8-0.2,12.5-3.6c4.1-2.1,3.8-3.6,7-4.5c5.1-1.5,10.8,1,14.2,3.9c5.9,5,6.9,12.9,7.2,15.1c0.6,4.5-0.3,6.6,0.9,7.3
	c2.2,1.3,6.8-4,15.6-10.9c6.5-5.1,11.7-8.3,18.5-12.4c1.7-1.1,10-6,20.1-10.6c17.9-8.1,45.5-11.1,45.5-11.1c1,1.9-2.2,5.7-4.8,8.8
	c-5.3,6.2-10.8,7.9-11.1,12.8c-0.1,1.2,0.3,0.9,0.4,3.1c0.1,1.5,0.4,6.8-2.5,11.1c-2.9,4.1-8.3,6.3-8.3,6.3c-2,6.2-5,8.8-7.3,10
	c-4.1,2.1-11.6,3.2-11.6,3.2s-2.8,4-6.6,6c-5.1,2.7-11.9,2.3-11.9,2.3c-2.2,3.4-4.6,4.9-6.4,5.7c-4.3,1.9-11,2.4-11,2.4
	s-3,3.3-5.9,4.8c-4.3,2.3-10,1-10,1s0,6.5-3.8,12.9c-6.3,10.5-14.8,13.8-14.8,13.8c0.1-1.4,0.2-2.8,0.3-4.2"/>
<circle class="st0" cx="115.8" cy="33.4" r="1.5"/>
<path class="st1" d="M90.8,101.1c0,0,4.8,4.1,8,7.9c3,3.5,7.4,10.9,7.4,10.9s6.8-3.1,14.7-4.3c5.1-0.8,12.5-1.6,12.5-1.6"/>
<path class="st1" d="M98.1,117.5c-2,0.4-4.4,0.9-6.9,1.8c-2.4,0.8-4.6,1.8-6.4,2.7"/>
<path class="st1" d="M115.6,121.4c1.3,1.3,2.6,2.9,4,4.9c1.4,2,2.5,3.9,3.4,5.6"/>
<g id="Layer_3">
	<path class="st1" d="M74.7,54.6C75,55.8,78.7,61,89.8,60"/>
	<path class="st1" d="M75,55.6"/>
	<path class="st1" d="M82.2,54"/>
	<path class="st1" d="M64.5,49.4c1,2,2.9,4.4,5.6,4.9c4.2,0.9,12.1-0.3,12.1-0.3"/>
	<path class="st1" d="M73,48.2"/>
	<path class="st1" d="M53,43c-0.1,1.3,2.9,4.8,4.8,5.5c6.3,2.2,15.2-0.3,15.2-0.3"/>
	<path class="st0" d="M54,44.1"/>
	<path class="st0" d="M65.7,41.2"/>
	<path class="st1" d="M39.2,37.5c0,0,3.6,3.6,5.8,4.1c9,2.3,20.6-0.5,20.6-0.5"/>
	<path class="st1" d="M161.5,59.1c-0.3,1.1-4.7,7.1-15.7,6.1"/>
	<path class="st1" d="M174.2,50.9c0,2.2-1.6,6.3-6.4,7.3c-4.6,1-14.8,1.6-14.8,1.6"/>
	<path class="st1" d="M190.3,42.1c0,0-1,4.8-6.7,7.2c-6.1,2.5-18.4,1.5-18.4,1.5"/>
	<path class="st1" d="M206,34.2c0,0-2.5,6.5-7.9,7.4c-8.2,1.3-24.5,0.5-24.5,0.5"/>
</g>
</svg>
