<?xml version="1.0" encoding="UTF-8" standalone="no"?>
<!-- Generator: Adobe Illustrator 24.2.1, SVG Export Plug-In . SVG Version: 6.00 Build 0)  -->

<svg
   version="1.1"
   id="Camada_1"
   x="0px"
   y="0px"
   viewBox="0 0 249.1748 146.33522"
   xml:space="preserve"
   sodipodi:docname="logo-pombo.svg"
   width="249.1748"
   height="146.33522"
   inkscape:version="1.1.1 (3bf5ae0d25, 2021-09-20)"
   inkscape:export-filename="/home/isaacdennis/Projetos/Ionic/NewspeaceBackup/Newspeace/resources/splash.png"
   inkscape:export-xdpi="96"
   inkscape:export-ydpi="96"
   xmlns:inkscape="http://www.inkscape.org/namespaces/inkscape"
   xmlns:sodipodi="http://sodipodi.sourceforge.net/DTD/sodipodi-0.dtd"
   xmlns="http://www.w3.org/2000/svg"
   xmlns:svg="http://www.w3.org/2000/svg"><defs
   id="defs21" /><sodipodi:namedview
   id="namedview19"
   pagecolor="#ffffff"
   bordercolor="#666666"
   borderopacity="1.0"
   inkscape:pageshadow="2"
   inkscape:pageopacity="0.0"
   inkscape:pagecheckerboard="0"
   showgrid="false"
   inkscape:zoom="1.8101932"
   inkscape:cx="102.47525"
   inkscape:cy="131.47768"
   inkscape:window-width="1920"
   inkscape:window-height="1011"
   inkscape:window-x="0"
   inkscape:window-y="32"
   inkscape:window-maximized="1"
   inkscape:current-layer="Camada_1" />
<style
   type="text/css"
   id="style2">
	.st0{fill:#FFFFFF;stroke:#211915;stroke-width:4;stroke-miterlimit:10;}
	.st1{fill:none;stroke:#211915;stroke-width:2;stroke-miterlimit:10;}
</style>







<g
   id="g30"
   transform="matrix(0.43785214,0,0,0.41611674,-12.736265,-103.55999)"><path
     class="st0"
     d="m 34.68,259.49 c -1.54,3.18 -4.35,10.1 -3.4,18.89 1.26,11.69 8.33,19.03 11.4,22.13 6.51,6.57 13.71,9.44 17.87,10.72 l 11.74,2.55 c 0.51,3.78 1.78,9.67 5.28,16 1.68,3.04 6.29,11.15 16.17,16.85 10.45,6.03 20.57,5.76 24.51,5.45 1.54,4.04 5.03,11.62 12.51,18.55 7.52,6.97 15.38,9.88 19.53,11.11 4.3,1.14 9.89,2.21 16.47,2.43 6,0.2 11.2,-0.37 15.32,-1.11 1.95,3.72 5.71,9.7 12.43,14.98 2.56,2.02 8.28,6.41 16.85,8.34 6.63,1.49 12.03,0.85 19.23,0 5.02,-0.6 9.12,-1.5 11.91,-2.21 3.01,13.14 5.66,30.15 5.62,50.04 -0.04,17.7 -2.19,33.03 -4.77,45.23 -7.07,0.39 -14.34,0.7 -21.79,0.89 -7.47,0.2 -14.77,0.28 -21.87,0.26 0.48,12.62 0.75,25.65 0.77,39.06 0.02,17.63 -0.41,34.61 -1.19,50.89 24.02,2.62 49.36,4.73 75.91,6.13 25.36,1.33 49.68,1.9 72.85,1.87 4.52,-14.36 8.81,-30.89 12.09,-49.36 3.02,-17.01 4.66,-32.74 5.45,-46.81 -8.49,-0.69 -17.12,-1.31 -25.87,-1.87 -8.5,-0.54 -16.89,-1.01 -25.17,-1.4 8.22,-13.49 16.44,-26.98 24.66,-40.48 7.15,-10.21 14.3,-20.43 21.45,-30.64 4.17,0.66 12.6,1.41 22.17,-2.1 8.91,-3.26 14.33,-8.57 15.91,-10.2 3.46,-3.56 5.66,-7.11 7.02,-9.7 3.89,0.64 9.74,1.19 16.68,0.21 5.57,-0.78 18.2,-2.56 27.91,-12.94 6.32,-6.75 8.82,-14.37 9.87,-19.23 4.77,0.34 12.71,0.16 20.98,-3.91 8.05,-3.97 12.69,-9.78 16.3,-14.3 3.78,-4.74 6.25,-9.21 7.81,-12.46 3.72,0.97 11.18,2.31 19.76,-0.3 3.16,-0.96 13.36,-4.07 18.97,-14.2 3.16,-5.71 3.52,-11.23 3.5,-14.14 -0.11,-3.26 -0.23,-6.52 -0.34,-9.79 4.91,-0.91 12.86,-3.01 21.28,-8.34 9.65,-6.1 15.13,-13.42 17.36,-16.68 7.59,-11.1 9.48,-22.08 10.04,-27.74 -19.42,7.64 -36.06,12.76 -48.51,16.17 -12.35,3.38 -21.54,5.86 -34.38,7.66 -10.4,1.45 -19.9,1.73 -38.47,2.21 -27.88,0.73 -31.83,-0.28 -43.23,1.53 -14.96,2.38 -26.58,7.05 -33.7,10.38 -2.33,1.09 -11.77,5.36 -23.15,12.94 -7.27,4.84 -13.18,9.58 -17.7,13.53 0.34,-4.58 0.52,-11.19 -0.43,-19.06 -1.26,-10.49 -2.44,-20.33 -9.45,-29.87 -2.07,-2.82 -7.72,-10.3 -18.04,-14.3 -10.22,-3.95 -19.28,-2.26 -25.02,-1.19 -12.58,2.35 -23.16,8.71 -27.36,11.23 -5.38,3.23 -7.96,5.5 -13.79,7.28 -5.81,1.77 -11.66,2.08 -15.11,2.26 -4.23,0.22 -7.8,0.09 -10.38,-0.09 -1.86,-0.32 -2.42,-0.11 -2.55,0.17 -0.73,1.54 11.03,5.65 18.64,16.26 1.3,1.81 5.39,7.88 6.64,16.85 1.14,8.19 -0.67,14.8 -1.87,18.21 l -16.68,-17.87 c -4.29,-3.98 -11,-9.06 -20.26,-11.91 -8.12,-2.51 -15.45,-2.22 -29.79,-1.53 -12.4,0.59 -13.1,1.55 -25.36,2.21 -15.07,0.81 -26.51,0.04 -29.45,-0.17 -18.42,-1.34 -32.09,-4.76 -35.4,-5.62 C 86.8,285.77 76.54,281.33 69.4,278.21 60.07,274.13 48.01,268.14 34.68,259.49 Z"
     id="path4" /><path
     class="st1"
     d="m 314.81,275.47 c -0.92,-0.73 -2.4,-0.69 -3.23,0.1 -0.15,0.14 -0.65,0.67 -0.65,1.45 0,0.66 0.37,1.12 0.51,1.28 0.76,0.85 2.26,1 3.24,0.35 0.16,-0.1 0.91,-0.6 0.98,-1.47 0.08,-0.98 -0.74,-1.62 -0.85,-1.71 z"
     id="path6" /><path
     class="st1"
     d="m 246.04,484.08 c -0.01,2.49 -0.12,5.62 -0.48,9.2 -0.79,7.73 -2.32,14.08 -2.32,14.08 -1.56,6.43 -2.75,8.41 -1.79,9.19 1.69,1.38 7.75,-2.76 10.85,-5.81 0.92,-0.9 3.29,-3.4 5.87,-6.64 0.3,-0.37 0.54,-0.68 0.7,-0.89"
     id="path8" /><path
     class="st1"
     d="m 315.36,496.09 c -1.59,2.29 -4.02,5.72 -7.09,9.81 -6.03,8.03 -12.22,16.21 -14.19,15.21 -1.1,-0.56 -0.05,-3.27 -0.94,-9.7 -0.38,-2.75 -0.94,-4.95 -1.34,-6.34"
     id="path10" /><path
     class="st1"
     d="m 208.13,579.11 c 5.07,-4.24 10.93,-8.72 17.62,-13.15 6.52,-4.32 12.76,-7.89 18.51,-10.85"
     id="path12" /><path
     class="st1"
     d="m 298.64,553.45 c 6.09,5.23 12.17,10.47 18.26,15.7 4.26,3.87 8.51,7.74 12.77,11.62"
     id="path14" /><path
     class="st1"
     d="m 211.45,513.49 c 9.55,5.2 20.44,11.98 31.79,20.81 10.47,8.14 19.13,16.31 26.17,23.74 11.34,-7.86 24.61,-16.11 39.83,-24 13.7,-7.1 26.7,-12.73 38.55,-17.21"
     id="path16" /></g></svg>
